<?xml version="1.0" encoding="utf-8"?>
<!-- Generator: Adobe Illustrator 22.0.1, SVG Export Plug-In . SVG Version: 6.00 Build 0)  -->
<svg version="1.1" id="图层_1" xmlns="http://www.w3.org/2000/svg" xmlns:xlink="http://www.w3.org/1999/xlink" x="0px" y="0px"
	 viewBox="0 0 59.5 59.5" style="enable-background:new 0 0 59.5 59.5;" xml:space="preserve">
<style type="text/css">
	.st0{fill:#0364B8;}
	.st1{fill:#0078D4;}
	.st2{fill:#1490DF;}
	.st3{fill:#28A8EA;}
	.st4{fill:none;}
</style>
<path class="st0" d="M22.9,23.3L22.9,23.3l11.9,7.1l7.1-3c1.5-0.6,3-0.9,4.5-0.9c0.3,0,0.5,0,0.8,0c-2.4-9.3-12.1-15.1-21.5-12.7
	c-4.3,1.1-8,3.8-10.4,7.5h0.2C18.1,21.3,20.7,22,22.9,23.3z"/>
<path class="st1" d="M22.9,23.3c-2.3-1.4-4.8-2.1-7.5-2.1l-0.1,0.1c-7.9,0.1-14.1,6.5-14,14.3c0.1,2.9,0.9,5.6,2.5,7.9l10.5-4.4
	l4.7-1.9l10.4-4.4l5.4-2.3L22.9,23.3z"/>
<path class="st2" d="M47.2,26.6c-0.3,0-0.5,0-0.8,0c-1.6,0-3.1,0.3-4.5,0.9l-7.1,3l2.1,1.2l6.7,4.1l2.9,1.7l10.1,6
	c3-5.6,0.9-12.6-4.7-15.6C50.5,27.1,48.9,26.7,47.2,26.6L47.2,26.6z"/>
<path class="st3" d="M46.5,37.5l-2.9-1.7l-6.7-4.1l-2.1-1.2l-5.4,2.3L19,37.2l-4.7,1.9L3.8,43.5c2.7,3.8,7,6.1,11.6,6.1h31
	c4.3,0,8.1-2.3,10.1-6.1L46.5,37.5z"/>
<rect class="st4" width="59.5" height="59.5"/>
</svg>
