<?xml version="1.0" encoding="utf-8"?>
<!-- Generator: Adobe Illustrator 22.0.1, SVG Export Plug-In . SVG Version: 6.00 Build 0)  -->
<svg version="1.1" id="图层_1" xmlns="http://www.w3.org/2000/svg" xmlns:xlink="http://www.w3.org/1999/xlink" x="0px" y="0px"
	 viewBox="0 0 85 54.5" style="enable-background:new 0 0 85 54.5;" xml:space="preserve">
<style type="text/css">
	.st0{fill:#0364B8;}
	.st1{fill:#0078D4;}
	.st2{fill:#1490DF;}
	.st3{fill:#28A8EA;}
</style>
<path class="st0" d="M35.8,19.1L35.8,19.1l11.9,7.1l7.1-3c1.5-0.6,3-0.9,4.5-0.9c0.3,0,0.5,0,0.8,0C57.7,13,48,7.2,38.6,9.6
	c-4.3,1.1-8,3.8-10.4,7.5h0.2C31,17.1,33.6,17.8,35.8,19.1z"/>
<path class="st1" d="M35.8,19.1C33.5,17.7,31,17,28.3,17l-0.1,0.1c-7.9,0.1-14.1,6.5-14,14.3c0.1,2.9,0.9,5.6,2.5,7.9l10.5-4.4
	l4.7-1.9l10.4-4.4l5.4-2.3L35.8,19.1z"/>
<path class="st2" d="M60.1,22.4c-0.3,0-0.5,0-0.8,0c-1.6,0-3.1,0.3-4.5,0.9l-7.1,3l2.1,1.2l6.7,4.1l2.9,1.7l10.1,6
	c3-5.6,0.9-12.6-4.7-15.6C63.4,22.9,61.8,22.5,60.1,22.4L60.1,22.4z"/>
<path class="st3" d="M59.4,33.3l-2.9-1.7l-6.7-4.1l-2.1-1.2l-5.4,2.3L31.9,33l-4.7,1.9l-10.5,4.4c2.7,3.8,7,6.1,11.6,6.1h31
	c4.3,0,8.1-2.3,10.1-6.1L59.4,33.3z"/>
</svg>
