<?xml version="1.0" encoding="utf-8"?>
<!-- Generator: Adobe Illustrator 22.0.1, SVG Export Plug-In . SVG Version: 6.00 Build 0)  -->
<svg version="1.1" id="图层_1" xmlns="http://www.w3.org/2000/svg" xmlns:xlink="http://www.w3.org/1999/xlink" x="0px" y="0px"
	 viewBox="0 0 85 54.5" style="enable-background:new 0 0 85 54.5;" xml:space="preserve">
<style type="text/css">
	.st0{fill:#0364B8;}
	.st1{fill:#0078D4;}
	.st2{fill:#1490DF;}
	.st3{fill:#28A8EA;}
</style>
<path class="st0" d="M32.4,15.1L32.4,15.1l17.9,10.7l10.6-4.5c2.2-0.9,4.5-1.4,6.8-1.4c0.4,0,0.8,0,1.2,0
	C65.3,5.8,50.8-2.8,36.6,0.8C30.2,2.5,24.6,6.5,21,12l0.3,0C25.2,12,29.1,13.1,32.4,15.1z"/>
<path class="st1" d="M32.4,15.1c-3.4-2.1-7.2-3.2-11.2-3.2L21,12C9.2,12.1-0.1,21.8,0,33.5c0.1,4.3,1.4,8.4,3.8,11.9l15.7-6.6l7-2.9
	l15.6-6.6l8.1-3.4L32.4,15.1z"/>
<path class="st2" d="M68.9,20c-0.4,0-0.8,0-1.2,0c-2.4,0-4.7,0.5-6.8,1.4l-10.6,4.5l3.1,1.8l10.1,6.1l4.4,2.6l15.1,9
	c4.5-8.4,1.4-18.9-7-23.4C73.8,20.8,71.4,20.1,68.9,20L68.9,20z"/>
<path class="st3" d="M67.9,36.4l-4.4-2.6l-10.1-6.1l-3.1-1.8l-8.1,3.4l-15.6,6.6l-7,2.9L3.8,45.4c4,5.7,10.5,9.1,17.4,9.1h46.5
	c6.4,0,12.2-3.5,15.2-9.1L67.9,36.4z"/>
</svg>
