<?xml version="1.0" encoding="utf-8"?>
<!-- Generator: Adobe Illustrator 22.0.1, SVG Export Plug-In . SVG Version: 6.00 Build 0)  -->
<svg version="1.1" id="图层_1" xmlns="http://www.w3.org/2000/svg" xmlns:xlink="http://www.w3.org/1999/xlink" x="0px" y="0px"
	 viewBox="0 0 56.7 49.6" style="enable-background:new 0 0 56.7 49.6;" xml:space="preserve">
<style type="text/css">
	.st0{fill:#CA64EA;}
	.st1{fill:#AE4BD5;}
	.st2{fill:#9332BF;}
	.st3{fill:#7719AA;}
	.st4{opacity:0.1;enable-background:new    ;}
	.st5{opacity:0.2;enable-background:new    ;}
	.st6{opacity:0.3;enable-background:new    ;}
	.st7{fill:#FFFFFF;}
</style>
<path class="st0" d="M16.5,0h37.8c1.3,0,2.3,1.1,2.3,2.3l0,0v44.9c0,1.3-1.1,2.3-2.3,2.3l0,0H16.5c-1.3,0-2.3-1.1-2.3-2.3l0,0V2.3
	C14.2,1.1,15.3,0,16.5,0L16.5,0z"/>
<path class="st0" d="M56.7,2.3c0-1.3-1.1-2.3-2.3-2.3l0,0H16.5c-1.3,0-2.3,1.1-2.3,2.3v44.9c0,1.3,1.1,2.3,2.3,2.3l0,0h27.7
	l12.4-37.2V2.3z"/>
<path class="st1" d="M56.7,12.4H44.3v12.4l6.2,5.7l6.2-5.7L56.7,12.4L56.7,12.4z"/>
<path class="st2" d="M56.7,24.7H44.3v12.4l6.2,6l6.2-6L56.7,24.7L56.7,24.7z"/>
<path class="st3" d="M44.3,37.2h12.4v10.1c0,1.3-1.1,2.3-2.3,2.3l0,0H44.3V37.2z"/>
<path class="st4" d="M29.5,8.9H14.2v33.7h15.4c1.3,0,2.3-1.1,2.3-2.3v-29C31.9,9.9,30.9,8.9,29.5,8.9z"/>
<path class="st5" d="M27.7,10.6H14.2v33.7h13.5c1.3,0,2.3-1.1,2.3-2.3v-29C30.1,11.7,29,10.7,27.7,10.6z"/>
<path class="st6" d="M27.7,10.6H14.2v30.1h13.5c1.3,0,2.3-1.1,2.3-2.3V12.9C30.1,11.7,29,10.7,27.7,10.6z"/>
<path class="st5" d="M26,10.6H14.2v30.1H26c1.3,0,2.3-1.1,2.3-2.3V12.9C28.3,11.7,27.3,10.7,26,10.6z"/>
<path class="st3" d="M2.3,10.6H26c1.3,0,2.3,1.1,2.3,2.3l0,0v23.6c0,1.3-1.1,2.3-2.3,2.3l0,0H2.3c-1.3,0-2.3-1.1-2.3-2.3l0,0V12.9
	C0,11.7,1.1,10.6,2.3,10.6L2.3,10.6z"/>
<path class="st7" d="M7.1,15.9h3.8l6.5,11.9c0.3,0.5,0.6,0.9,0.7,1.2h0.1c-0.1-0.7-0.1-1.6-0.1-2.3V15.9h3.3v17.7h-3.5l-6.7-11.7
	c-0.2-0.4-0.5-0.7-0.7-1.2h-0.1c0.1,0.9,0.1,1.7,0.1,2.6v10.3H7.1L7.1,15.9L7.1,15.9z"/>
</svg>
