<?xml version="1.0" encoding="utf-8"?>
<!-- Generator: Adobe Illustrator 22.0.1, SVG Export Plug-In . SVG Version: 6.00 Build 0)  -->
<svg version="1.1" id="图层_1" xmlns="http://www.w3.org/2000/svg" xmlns:xlink="http://www.w3.org/1999/xlink" x="0px" y="0px"
	 viewBox="0 0 59.5 59.5" style="enable-background:new 0 0 59.5 59.5;" xml:space="preserve">
<style type="text/css">
	.st0{fill:#CA64EA;}
	.st1{fill:#AE4BD5;}
	.st2{fill:#9332BF;}
	.st3{fill:#7719AA;}
	.st4{opacity:0.1;enable-background:new    ;}
	.st5{opacity:0.2;enable-background:new    ;}
	.st6{opacity:0.3;enable-background:new    ;}
	.st7{fill:#FFFFFF;}
	.st8{fill:none;}
</style>
<path class="st0" d="M18,5.1h37.8c1.3,0,2.3,1.1,2.3,2.3l0,0v44.9c0,1.3-1.1,2.3-2.3,2.3l0,0H18c-1.3,0-2.3-1.1-2.3-2.3l0,0V7.4
	C15.7,6.2,16.8,5.1,18,5.1L18,5.1z"/>
<path class="st0" d="M58.2,7.4c0-1.3-1.1-2.3-2.3-2.3l0,0H18c-1.3,0-2.3,1.1-2.3,2.3v44.9c0,1.3,1.1,2.3,2.3,2.3l0,0h27.7l12.4-37.2
	v-10H58.2z"/>
<path class="st1" d="M58.2,17.5H45.8v12.4l6.2,5.7l6.2-5.7V17.5L58.2,17.5z"/>
<path class="st2" d="M58.2,29.8H45.8v12.4l6.2,6l6.2-6V29.8L58.2,29.8z"/>
<path class="st3" d="M45.8,42.3h12.4v10.1c0,1.3-1.1,2.3-2.3,2.3l0,0H45.8V42.3z"/>
<path class="st4" d="M31,14H15.7v33.7h15.4c1.3,0,2.3-1.1,2.3-2.3v-29C33.4,15,32.4,14,31,14z"/>
<path class="st5" d="M29.2,15.7H15.7v33.7h13.5c1.3,0,2.3-1.1,2.3-2.3v-29C31.6,16.8,30.5,15.8,29.2,15.7z"/>
<path class="st6" d="M29.2,15.7H15.7v30.1h13.5c1.3,0,2.3-1.1,2.3-2.3V18C31.6,16.8,30.5,15.8,29.2,15.7z"/>
<path class="st5" d="M27.5,15.7H15.7v30.1h11.8c1.3,0,2.3-1.1,2.3-2.3V18C29.8,16.8,28.8,15.8,27.5,15.7z"/>
<path class="st3" d="M3.8,15.7h23.7c1.3,0,2.3,1.1,2.3,2.3l0,0v23.6c0,1.3-1.1,2.3-2.3,2.3l0,0H3.8c-1.3,0-2.3-1.1-2.3-2.3l0,0V18
	C1.5,16.8,2.6,15.7,3.8,15.7L3.8,15.7z"/>
<path class="st7" d="M8.6,21h3.8l6.5,11.9c0.3,0.5,0.6,0.9,0.7,1.2h0.1c-0.1-0.7-0.1-1.6-0.1-2.3V21h3.3v17.7h-3.5L12.7,27
	c-0.2-0.4-0.5-0.7-0.7-1.2h-0.1c0.1,0.9,0.1,1.7,0.1,2.6v10.3H8.6V21L8.6,21z"/>
<rect class="st8" width="59.5" height="59.5"/>
</svg>
