<?xml version="1.0" encoding="utf-8"?>
<!-- Generator: Adobe Illustrator 22.0.1, SVG Export Plug-In . SVG Version: 6.00 Build 0)  -->
<svg version="1.1" id="图层_1" xmlns="http://www.w3.org/2000/svg" xmlns:xlink="http://www.w3.org/1999/xlink" x="0px" y="0px"
	 viewBox="0 0 85 74.4" style="enable-background:new 0 0 85 74.4;" xml:space="preserve">
<style type="text/css">
	.st0{fill:#CA64EA;}
	.st1{fill:#AE4BD5;}
	.st2{fill:#9332BF;}
	.st3{fill:#7719AA;}
	.st4{opacity:0.1;enable-background:new    ;}
	.st5{opacity:0.2;enable-background:new    ;}
	.st6{opacity:0.3;enable-background:new    ;}
	.st7{fill:#FFFFFF;}
</style>
<path class="st0" d="M24.8,0h56.7C83.4,0,85,1.6,85,3.5l0,0v67.3c0,1.9-1.6,3.5-3.5,3.5l0,0H24.8c-1.9,0-3.5-1.6-3.5-3.5l0,0V3.5
	C21.3,1.6,22.9,0,24.8,0L24.8,0z"/>
<path class="st0" d="M85,3.5C85,1.6,83.4,0,81.5,0l0,0H24.8c-1.9,0-3.5,1.6-3.5,3.5v67.3c0,1.9,1.6,3.5,3.5,3.5l0,0h41.6L85,18.6
	V3.5z"/>
<path class="st1" d="M85,18.6H66.4v18.6l9.3,8.5l9.3-8.5V18.6H85z"/>
<path class="st2" d="M85,37.1H66.4v18.6l9.3,9l9.3-9V37.1H85z"/>
<path class="st3" d="M66.4,55.8H85v15.1c0,1.9-1.6,3.5-3.5,3.5l0,0H66.4V55.8z"/>
<path class="st4" d="M44.3,13.3H21.3v50.5h23.1c1.9,0,3.5-1.6,3.5-3.5V16.8C47.8,14.9,46.3,13.3,44.3,13.3z"/>
<path class="st5" d="M41.6,15.9H21.3v50.5h20.3c1.9,0,3.5-1.6,3.5-3.5V19.4C45.1,17.5,43.5,16,41.6,15.9z"/>
<path class="st6" d="M41.6,15.9H21.3V61h20.3c1.9,0,3.5-1.6,3.5-3.5V19.4C45.1,17.5,43.5,16,41.6,15.9z"/>
<path class="st5" d="M39,15.9H21.3V61H39c1.9,0,3.5-1.6,3.5-3.5V19.4C42.5,17.5,40.9,16,39,15.9z"/>
<path class="st3" d="M3.5,15.9H39c1.9,0,3.5,1.6,3.5,3.5l0,0v35.4c0,1.9-1.6,3.5-3.5,3.5l0,0H3.5c-1.9,0-3.5-1.6-3.5-3.5l0,0V19.4
	C0,17.5,1.6,15.9,3.5,15.9L3.5,15.9z"/>
<path class="st7" d="M10.6,23.9h5.7l9.7,17.9c0.5,0.8,0.9,1.4,1.1,1.8h0.1c-0.1-1.1-0.2-2.4-0.1-3.5V23.9H32v26.6h-5.3L16.6,32.9
	c-0.3-0.6-0.7-1.1-1-1.8h-0.1c0.1,1.3,0.1,2.6,0.1,3.9v15.5h-4.9V23.9z"/>
</svg>
